<?xml version="1.0" standalone="no"?>
<!DOCTYPE svg PUBLIC "-//W3C//DTD SVG 20010904//EN"
 "http://www.w3.org/TR/2001/REC-SVG-20010904/DTD/svg10.dtd">
<svg version="1.0" xmlns="http://www.w3.org/2000/svg"
 width="1024.000000pt" height="1024.000000pt" viewBox="0 0 1024.000000 1024.000000"
 preserveAspectRatio="xMidYMid meet">

<g transform="translate(0.000000,1024.000000) scale(0.100000,-0.100000)"
fill="#000000" stroke="none">
<path d="M0 5120 l0 -5120 5120 0 5120 0 0 5120 0 5120 -5120 0 -5120 0 0
-5120z m2618 2461 c31 -22 58 -57 101 -134 25 -45 184 -324 212 -372 12 -22
50 -89 84 -150 34 -60 89 -159 123 -218 34 -60 62 -111 62 -113 0 -2 12 -23
27 -47 27 -43 79 -134 217 -382 146 -262 155 -270 199 -192 159 281 179 317
247 442 24 44 51 91 60 105 10 14 38 63 63 110 25 47 85 157 135 245 49 88
143 257 209 375 154 276 172 305 213 335 l34 25 1276 -1 c1413 -1 1381 0 1630
-66 30 -8 62 -17 70 -18 34 -8 130 -46 196 -77 253 -122 472 -310 610 -525
158 -247 244 -555 244 -878 0 -102 -19 -289 -35 -345 -2 -8 -7 -31 -10 -50
-18 -106 -123 -358 -201 -480 -48 -76 -137 -182 -205 -244 -64 -60 -218 -176
-274 -208 -164 -92 -382 -169 -545 -193 -25 -3 -63 -11 -85 -17 -22 -5 -228
-12 -470 -15 -277 -3 -434 -8 -442 -15 -10 -8 -13 -185 -13 -842 l0 -832 -28
-27 c-16 -15 -44 -32 -63 -37 -19 -6 -202 -10 -434 -10 -448 0 -453 1 -487 70
-17 33 -18 148 -18 1973 0 1869 -1 1937 -18 1937 -18 0 -142 -201 -470 -760
-46 -80 -95 -161 -107 -180 -34 -54 -53 -86 -73 -122 -24 -42 -104 -177 -327
-553 -98 -165 -186 -318 -196 -340 -18 -38 -19 -92 -19 -995 0 -867 -2 -958
-16 -979 -35 -49 -54 -51 -481 -51 -242 0 -413 4 -435 10 -20 6 -46 22 -58 37
-20 25 -20 34 -20 982 l0 957 -39 80 c-22 43 -47 90 -55 104 -14 23 -201 346
-248 430 -11 19 -37 64 -58 100 -21 36 -47 81 -58 100 -10 19 -79 139 -152
265 -73 127 -144 250 -158 275 -14 25 -60 104 -102 175 -77 131 -92 157 -183
320 -27 50 -80 142 -117 205 -238 408 -281 482 -315 545 -21 39 -49 86 -62
105 -40 60 -23 132 40 171 31 19 50 19 512 17 l480 -3 33 -24z"/>
<path d="M6360 6671 c-16 -31 -14 -1202 3 -1225 12 -17 36 -18 383 -13 213 3
390 9 419 16 67 15 180 71 233 117 83 71 154 188 188 311 25 90 30 265 10 354
-38 167 -147 316 -284 388 -117 61 -200 71 -594 71 -333 0 -348 -1 -358 -19z"/>
</g>
</svg>
